<svg id="Layer_1" data-name="Layer 1" xmlns="http://www.w3.org/2000/svg" viewBox="0 0 501.8 501.79"><defs><style>.cls-1{fill:#212529;}</style></defs><title>Logos</title><path class="cls-1" d="M404,210.38l-14.14-14.14,47.39-47.4a118.3,118.3,0,0,0,22.32-30.69c15.3-30.92,22.79-59.74,22.25-85.65A12.87,12.87,0,0,0,469.29,20c-25.91-.56-54.72,6.94-85.65,22.24A118.87,118.87,0,0,0,353,64.59L305.56,112,291.41,97.85l47.4-47.4a138.78,138.78,0,0,1,36-26.1C408.61,7.6,440.52-.57,469.71,0a32.66,32.66,0,0,1,32.05,32.05c.61,29.16-7.57,61.1-24.31,94.94a139,139,0,0,1-26.11,36Z"/><ellipse class="cls-1" cx="396.97" cy="104.83" rx="69.7" ry="34.33" transform="translate(42.14 311.4) rotate(-45)"/><path class="cls-1" d="M97.85,210.38,50.45,163a139,139,0,0,1-26.1-36C7.6,93.18-.58,61.24,0,32.08A32.67,32.67,0,0,1,32.08,0C61.25-.55,93.19,7.6,127,24.35a139,139,0,0,1,36,26.1l47.39,47.4L196.24,112l-47.4-47.4a118.53,118.53,0,0,0-30.69-22.32C87.23,27,58.42,19.48,32.5,20A12.86,12.86,0,0,0,20,32.5C19.49,58.41,27,87.23,42.27,118.15A118.34,118.34,0,0,0,64.6,148.84L112,196.24Z"/><ellipse class="cls-1" cx="104.83" cy="104.83" rx="34.33" ry="69.7" transform="translate(-43.42 104.83) rotate(-45)"/><path class="cls-1" d="M35.13,501.79c-1,0-2,0-3.05,0A32.66,32.66,0,0,1,0,469.71c-.61-29.16,7.57-61.1,24.32-94.94a138.78,138.78,0,0,1,26.1-36l47.4-47.4L112,305.56,64.6,353a118.68,118.68,0,0,0-22.33,30.69C27,414.57,19.49,443.38,20,469.29A12.87,12.87,0,0,0,32.5,481.77c25.9.54,54.73-6.95,85.65-22.25a118.7,118.7,0,0,0,30.69-22.32l47.4-47.4L210.38,404,163,451.34a138.76,138.76,0,0,1-36,26.1C94.36,493.61,63.46,501.79,35.13,501.79Z"/><ellipse class="cls-1" cx="104.83" cy="396.96" rx="69.7" ry="34.33" transform="translate(-249.99 190.39) rotate(-45)"/><path class="cls-1" d="M466.67,501.79c-28.34,0-59.23-8.18-91.9-24.34a138.82,138.82,0,0,1-36-26.11L291.41,404l14.15-14.15L353,437.2a118.87,118.87,0,0,0,30.69,22.32c30.93,15.3,59.76,22.8,85.65,22.25a12.87,12.87,0,0,0,12.48-12.48c.54-25.91-6.95-54.72-22.25-85.65A118.63,118.63,0,0,0,437.2,353l-47.39-47.39L404,291.41l47.39,47.4a138.75,138.75,0,0,1,26.11,36c16.74,33.84,24.92,65.78,24.31,94.94a32.65,32.65,0,0,1-32.05,32.05C468.7,501.78,467.68,501.79,466.67,501.79Z"/><ellipse class="cls-1" cx="396.97" cy="396.96" rx="34.33" ry="69.7" transform="translate(-164.43 396.97) rotate(-45)"/><path class="cls-1" d="M250.9,344.88a94,94,0,1,1,66.49-27.49h0A93.75,93.75,0,0,1,250.9,344.88Zm0-168a74,74,0,1,0,52.35,21.65A73.81,73.81,0,0,0,250.9,176.9Z"/><circle class="cls-1" cx="250.9" cy="250.9" r="34.33"/><ellipse class="cls-1" cx="250.9" cy="67.88" rx="22.73" ry="46.14"/><ellipse class="cls-1" cx="433.92" cy="250.9" rx="46.14" ry="22.73"/><ellipse class="cls-1" cx="250.9" cy="433.91" rx="22.73" ry="46.14"/><ellipse class="cls-1" cx="67.88" cy="250.9" rx="46.14" ry="22.73"/></svg>