<svg id="Layer_1" data-name="Layer 1" xmlns="http://www.w3.org/2000/svg" viewBox="0 0 1300.66 848.84"><defs><style>.cls-1{fill:#212529;}</style></defs><title>Logos</title><path class="cls-1" d="M137.65,723.38a24.62,24.62,0,0,1,6.41,8.54,26.1,26.1,0,0,1,2.34,11v32.74a26.07,26.07,0,0,1-2,10.27A26.64,26.64,0,0,1,130.23,800a25.89,25.89,0,0,1-10.27,2H0V655.68H113.86a26.07,26.07,0,0,1,10.27,2,26.64,26.64,0,0,1,14.13,14.13,25.89,25.89,0,0,1,2,10.27V712A26.8,26.8,0,0,1,137.65,723.38ZM26.43,677.64A4.51,4.51,0,0,0,22,682.11V712a4.51,4.51,0,0,0,4.47,4.47h87.43a4.52,4.52,0,0,0,4.48-4.47V682.11a4.52,4.52,0,0,0-4.48-4.47Zm98,65.26a4.52,4.52,0,0,0-4.48-4.47H26.43A4.51,4.51,0,0,0,22,742.9v32.74a4.51,4.51,0,0,0,4.47,4.47H120a4.52,4.52,0,0,0,4.48-4.47Z"/><path class="cls-1" d="M287.91,684.14v91.5a25.9,25.9,0,0,1-2,10.27A26.64,26.64,0,0,1,271.74,800a25.86,25.86,0,0,1-10.27,2H194.38a25.86,25.86,0,0,1-10.27-2A26.64,26.64,0,0,1,170,785.91a25.9,25.9,0,0,1-2-10.27v-91.5h22v91.5a4.52,4.52,0,0,0,4.48,4.47h67.09a4.51,4.51,0,0,0,4.48-4.47v-91.5Z"/><path class="cls-1" d="M309.05,710.58V645.51h22V775.64a4.51,4.51,0,0,0,4.47,4.47h22v22h-22a25.81,25.81,0,0,1-10.26-2,26.35,26.35,0,0,1-8.44-5.69,26.65,26.65,0,0,1-5.7-8.44,26.07,26.07,0,0,1-2-10.27Z"/><path class="cls-1" d="M370.45,710.58V645.51h22V775.64a4.51,4.51,0,0,0,4.48,4.47h21.95v22H396.89a25.86,25.86,0,0,1-10.27-2,26.64,26.64,0,0,1-14.13-14.13,25.9,25.9,0,0,1-2-10.27Z"/><path class="cls-1" d="M525.18,684.14a25.9,25.9,0,0,1,10.27,2,26.64,26.64,0,0,1,14.13,14.13,26,26,0,0,1,2,10.27v43.51h-98v21.55a4.51,4.51,0,0,0,4.47,4.47h93.53v22H458.08a25.81,25.81,0,0,1-10.26-2,26.35,26.35,0,0,1-8.44-5.69,26.65,26.65,0,0,1-5.7-8.44,26.07,26.07,0,0,1-2-10.27V710.58a26,26,0,0,1,2-10.27,26.7,26.7,0,0,1,14.14-14.13,25.81,25.81,0,0,1,10.26-2Zm4.47,48V710.58a4.51,4.51,0,0,0-4.47-4.48h-67.1a4.51,4.51,0,0,0-4.47,4.48v21.55Z"/><path class="cls-1" d="M594.72,706.1v69.54a4.51,4.51,0,0,0,4.47,4.47h43.92v22H599.19a25.86,25.86,0,0,1-10.27-2,26.64,26.64,0,0,1-14.13-14.13,25.89,25.89,0,0,1-2-10.27V645.51h22v38.63h48.39v22Z"/><path class="cls-1" d="M791.33,655.68v22H679.09V717.9h90.28v22H679.09v62.22h-22V655.68Z"/><path class="cls-1" d="M896.24,684.14a25.86,25.86,0,0,1,10.27,2,26.64,26.64,0,0,1,14.13,14.13,25.86,25.86,0,0,1,2,10.27v65.06a25.9,25.9,0,0,1-2,10.27A26.64,26.64,0,0,1,906.51,800a25.86,25.86,0,0,1-10.27,2H829.15a25.86,25.86,0,0,1-10.27-2,26.64,26.64,0,0,1-14.13-14.13,25.9,25.9,0,0,1-2-10.27V710.58a25.86,25.86,0,0,1,2-10.27,26.64,26.64,0,0,1,14.13-14.13,25.86,25.86,0,0,1,10.27-2Zm-67.09,22a4.52,4.52,0,0,0-4.48,4.48v65.06a4.52,4.52,0,0,0,4.48,4.47h67.09a4.51,4.51,0,0,0,4.48-4.47V710.58a4.51,4.51,0,0,0-4.48-4.48Z"/><path class="cls-1" d="M1031.86,684.14v22H966a4.51,4.51,0,0,0-4.47,4.48v91.49h-22V710.58a26,26,0,0,1,2-10.27,26.7,26.7,0,0,1,14.14-14.13,25.81,25.81,0,0,1,10.26-2Z"/><path class="cls-1" d="M1161.38,757.14v65.27a26,26,0,0,1-2,10.26,26.7,26.7,0,0,1-14.14,14.13,25.81,25.81,0,0,1-10.26,2h-72.79v-22H1135a4.51,4.51,0,0,0,4.47-4.47V802.07h-71.57a25.86,25.86,0,0,1-10.27-2,26.64,26.64,0,0,1-14.13-14.13,25.89,25.89,0,0,1-2-10.27V710.58a25.86,25.86,0,0,1,2-10.27,26.64,26.64,0,0,1,14.13-14.13,25.86,25.86,0,0,1,10.27-2H1135a25.81,25.81,0,0,1,10.26,2,26.7,26.7,0,0,1,14.14,14.13,26,26,0,0,1,2,10.27Zm-26.43,23a4.51,4.51,0,0,0,4.47-4.47V710.58a4.51,4.51,0,0,0-4.47-4.48h-67.1a4.51,4.51,0,0,0-4.47,4.48v65.06a4.51,4.51,0,0,0,4.47,4.47Z"/><path class="cls-1" d="M1274.23,684.14a25.81,25.81,0,0,1,10.26,2,26.7,26.7,0,0,1,14.14,14.13,26,26,0,0,1,2,10.27v43.51h-98v21.55a4.51,4.51,0,0,0,4.47,4.47h93.53v22h-93.53a25.86,25.86,0,0,1-10.27-2,26.64,26.64,0,0,1-14.13-14.13,25.89,25.89,0,0,1-2-10.27V710.58a25.86,25.86,0,0,1,2-10.27,26.64,26.64,0,0,1,14.13-14.13,25.86,25.86,0,0,1,10.27-2Zm4.47,48V710.58a4.51,4.51,0,0,0-4.47-4.48h-67.1a4.51,4.51,0,0,0-4.47,4.48v21.55Z"/><path class="cls-1" d="M802.56,210.38l-14.14-14.14,47.39-47.4a118.23,118.23,0,0,0,22.32-30.69c15.31-30.92,22.79-59.74,22.25-85.65A12.88,12.88,0,0,0,867.91,20c-25.92-.55-54.73,7-85.65,22.25a118.53,118.53,0,0,0-30.69,22.32L704.17,112,690,97.84l47.39-47.39a138.59,138.59,0,0,1,36-26.1C807.22,7.6,839.13-.57,868.32,0a32.67,32.67,0,0,1,32.06,32.05c.61,29.16-7.57,61.1-24.32,94.94A138.78,138.78,0,0,1,850,163Z"/><ellipse class="cls-1" cx="795.58" cy="104.83" rx="69.7" ry="34.33" transform="translate(158.9 593.26) rotate(-45)"/><path class="cls-1" d="M496.46,210.38,449.07,163A138.82,138.82,0,0,1,423,127C406.22,93.18,398,61.24,398.65,32.08A32.66,32.66,0,0,1,430.7,0c29.16-.58,61.1,7.57,94.94,24.32a138.71,138.71,0,0,1,36,26.1L609,97.84,594.85,112l-47.39-47.4a118.75,118.75,0,0,0-30.7-22.32C485.84,27,457,19.47,431.12,20A12.88,12.88,0,0,0,418.64,32.5c-.54,25.91,6.94,54.73,22.25,85.65a118.47,118.47,0,0,0,22.32,30.69l47.39,47.4Z"/><ellipse class="cls-1" cx="503.44" cy="104.83" rx="34.33" ry="69.7" transform="translate(73.33 386.69) rotate(-45)"/><path class="cls-1" d="M433.74,501.79c-1,0-2,0-3,0a32.66,32.66,0,0,1-32.05-32.05c-.61-29.16,7.57-61.1,24.31-94.94a138.59,138.59,0,0,1,26.11-36l47.39-47.4,14.14,14.15L463.21,353a118.47,118.47,0,0,0-22.32,30.69c-15.31,30.93-22.79,59.74-22.25,85.65a12.87,12.87,0,0,0,12.48,12.48c25.9.54,54.72-6.95,85.64-22.25a118.75,118.75,0,0,0,30.7-22.32l47.39-47.4L609,404,561.6,451.34a138.71,138.71,0,0,1-36,26.1C493,493.61,462.07,501.79,433.74,501.79Z"/><ellipse class="cls-1" cx="503.44" cy="396.96" rx="69.7" ry="34.33" transform="translate(-133.24 472.26) rotate(-45)"/><path class="cls-1" d="M865.28,501.79c-28.33,0-59.23-8.18-91.89-24.35a138.59,138.59,0,0,1-36-26.1L690,404l14.14-14.15,47.4,47.4a118.53,118.53,0,0,0,30.69,22.32c30.92,15.3,59.75,22.8,85.65,22.25a12.87,12.87,0,0,0,12.47-12.48c.54-25.91-6.94-54.72-22.25-85.65A118.23,118.23,0,0,0,835.81,353l-47.39-47.39,14.14-14.15,47.4,47.4a138.78,138.78,0,0,1,26.1,36c16.75,33.84,24.93,65.78,24.32,94.94a32.67,32.67,0,0,1-32.06,32.05C867.31,501.78,866.3,501.79,865.28,501.79Z"/><ellipse class="cls-1" cx="795.58" cy="396.96" rx="34.33" ry="69.7" transform="translate(-47.68 678.83) rotate(-45)"/><path class="cls-1" d="M649.51,344.88A94,94,0,1,1,716,317.39h0A93.73,93.73,0,0,1,649.51,344.88Zm0-168a74,74,0,1,0,52.35,21.65A73.78,73.78,0,0,0,649.51,176.9Z"/><circle class="cls-1" cx="649.51" cy="250.9" r="34.33"/><ellipse class="cls-1" cx="649.51" cy="67.88" rx="22.73" ry="46.14"/><ellipse class="cls-1" cx="832.53" cy="250.9" rx="46.14" ry="22.73"/><ellipse class="cls-1" cx="649.51" cy="433.91" rx="22.73" ry="46.14"/><ellipse class="cls-1" cx="466.49" cy="250.9" rx="46.14" ry="22.73"/></svg>